<?xml version="1.0" encoding="UTF-8" standalone="no"?>
<svg width="500px" height="500px" viewBox="0 0 500 500" version="1.1" xmlns="http://www.w3.org/2000/svg" xmlns:xlink="http://www.w3.org/1999/xlink">
    <!-- Generator: Sketch 39.1 (31720) - http://www.bohemiancoding.com/sketch -->
    <title>SEA</title>
    <desc>Created with Sketch.</desc>
    <defs></defs>
    <g id="Page-1" stroke="none" stroke-width="1" fill="none" fill-rule="evenodd">
        <g id="SEA">
            <g transform="translate(0.000000, 139.000000)">
                <path d="M353.702327,175.474395 L53.0243202,175.541531 C34.3177492,175.541531 14.9727451,175.541531 5.0458299,160.263231 C-5.02509282,144.76434 0.447191211,129.514813 17.4304727,99.0013712 C18.6977385,96.7331239 70.1948114,0.00412408606 70.1948114,0.00412408606 C70.1948114,0.00412408606 75.4558845,6.53552549 80.7601598,10.6931797 C85.9972316,14.7932885 91.3783109,16.9752178 105.726256,16.9752178 C131.210778,16.9752178 295.609711,16.6203545 297.284998,16.6107636 C330.65633,16.6107636 364.36368,20.0634868 386.204814,43.9927769 C397.543002,45.20123 434.144902,50.0350425 464.309668,64.440571 C481.960184,72.8661747 493.605588,85.4542281 498.007417,100.823642 C499.341886,105.475227 499.99952,110.36179 499.99952,115.425784 C499.99952,130.018335 494.532036,146.174202 483.80828,162.97266 C461.155904,198.468572 440.26522,210.874399 439.329171,211.540966 C426.454903,220.589978 413.988656,221.011978 413.988656,221.011978 C413.988656,221.011978 425.216438,208.256084 429.003835,195.50019 C432.796032,182.7395 419.038518,181.233729 419.038518,181.233729 C396.251735,176.682848 366.336582,175.474395 353.702327,175.474395 Z" id="Fill-1" fill="#FFFFFF"></path>
                <path d="M460.590915,72.2211868 C426.20673,55.7967743 382.039637,52.2481422 382.039637,52.2481422 C362.766637,28.7216698 330.201747,25.230583 297.286438,25.230583 C297.286438,25.230583 131.514634,25.5950372 105.727696,25.5950372 C75.7117377,25.5950372 72.6971813,13.7023239 72.6971813,13.7023239 L32.4614929,88.9716899 L136.953316,88.9716899 C169.839823,88.9716899 171.486309,85.6820119 193.298641,69.6556217 C216.464643,52.6269826 234.960003,46.4744217 256.85394,46.4744217 C278.728675,46.4744217 293.215827,51.3945523 317.572291,62.1795168 C341.933556,72.9500951 354.879828,78.1915207 369.37658,72.0341643 C369.37658,72.0341643 357.966388,87.4323508 323.438196,72.9500951 C288.910004,58.4822257 279.669524,55.3987521 258.692435,55.3987521 C238.008162,55.3987521 214.314132,65.3205359 184.653392,94.8940693 L220.007227,123.307104 C220.007227,123.307104 211.827603,135.928726 206.441723,143.989875 C201.070244,152.046229 201.574271,157.431518 204.440019,161.363786 C207.310568,165.305645 210.925156,167.089552 224.010635,167.089552 C237.091314,167.089552 341.967157,166.84978 353.698966,166.84978 C363.899496,166.84978 395.811552,167.804074 420.720045,172.772159 C453.803362,179.385083 432.466255,207.251437 432.466255,207.251437 C432.466255,207.251437 454.609804,192.682863 476.537342,158.342654 C500.994612,120.031812 494.965499,88.6455993 460.590915,72.2211868" id="Fill-4" fill="#031F2F"></path>
                <path d="M399.842321,78.3934091 C384.20311,74.6577544 397.571804,65.6087423 397.571804,65.6087423 C375.068236,70.1500325 366.696601,88.4878291 364.762101,93.6189594 C364.402082,94.3142995 364.032463,95.0288214 363.653243,95.7817068 C351.201397,120.809155 339.988015,119.466429 318.727711,119.466429 L282.317821,119.466429 C252.825091,119.466429 239.091578,134.068571 224.954844,158.937769 L241.611709,158.937769 C256.833299,136.293659 268.329895,130.189053 298.432258,128.491464 C367.234229,128.529827 422.081876,148.248713 451.06578,163.320809 C492.29032,94.1656406 431.111144,82.718904 399.842321,78.3934091" id="Fill-6" fill="#FFFFFF"></path>
                <path d="M271.787515,158.670662 C279.477514,147.05129 295.126326,143.104635 320.351636,144.557656 C382.601267,148.159038 418.391924,160.267547 446.199768,170.616126 C411.906788,150.561558 350.804416,136.112871 308.331812,136.247143 C287.575534,136.309484 269.449794,139.934844 258.798041,158.670662 L271.787515,158.670662 Z" id="Fill-8" fill="#FFFFFF"></path>
                <path d="M338.596903,90.068409 C330.484481,101.371282 319.799127,105.236414 289.490354,103.16478 C254.232524,100.771851 263.333796,85.9347321 267.438009,78.6264679 C267.438009,78.6264679 267.346804,78.6264679 267.318003,78.6120816 C268.441261,76.5500386 270.361361,73.0349745 272.305462,69.5055241 C245.29446,67.8367079 225.560635,88.6105926 225.560635,88.6105926 C245.697681,108.516501 259.133578,110.59293 277.355324,110.59293 L311.417892,110.59293 C343.089936,110.59293 350.741533,96.3552425 353.645684,90.02525 C348.1782,90.7109992 343.257944,90.6534538 338.596903,90.068409" id="Fill-10" fill="#FFFFFF"></path>
                <path d="M323.221224,86.7015243 C322.577991,86.4377747 321.910756,86.1692295 321.243522,85.8958889 C318.137761,89.1663851 312.780683,91.0605874 307.591613,90.39402 C300.760859,89.5212483 296.824654,84.5627541 298.763955,79.3309194 C299.042369,78.5636476 299.450391,77.8395348 299.935216,77.1537856 C296.435834,75.7822872 292.917252,74.4635387 289.489874,73.269472 C282.471909,84.6059132 278.358096,92.1251771 302.70976,94.1776292 C317.878547,95.4676049 321.992361,92.8732671 325.179726,87.4304326 C324.526892,87.1810692 323.893259,86.9700695 323.221224,86.7015243" id="Fill-12" fill="#34B233"></path>
                <path d="M200.922877,129.785276 C188.360625,151.566205 183.373166,156.572653 192.200824,166.906846 L53.0224001,166.906846 C32.4965347,166.906846 19.1566423,166.134779 12.2874858,155.560814 C5.6103392,145.293758 6.98801071,135.501451 24.9793445,103.184921 L143.305486,103.184921 C163.682544,103.184921 168.919616,104.345419 179.974589,112.914887 C191.029563,121.493945 200.922877,129.785276 200.922877,129.785276" id="Fill-14" fill="#213D5A"></path>
            </g>
        </g>
    </g>
</svg>